<svg xmlns:rdf="http://www.w3.org/1999/02/22-rdf-syntax-ns#" xmlns="http://www.w3.org/2000/svg" height="500" width="1180" version="1.1" xmlns:cc="http://creativecommons.org/ns#" xmlns:dc="http://purl.org/dc/elements/1.1/"><title>Bindung in Metallcarbonylen</title><metadata><rdf:RDF><cc:Work rdf:about=""><dc:format>image/svg+xml</dc:format><dc:type rdf:resource="http://purl.org/dc/dcmitype/StillImage"/><dc:title>Bindung in Metallcarbonylen</dc:title><dc:creator><cc:Agent><dc:title>MagentaGreen</dc:title></cc:Agent></dc:creator></cc:Work></rdf:RDF></metadata><rect fill-rule="nonzero" height="500" width="1180" y="0" x="0" fill="#FFF"/><g transform="translate(0,-1.999999)" fill="#000"><path d="m1008.98,80.6562,0,2,29.5624,0,0.2188,0,0-2-0.2188,0-29.5624,0z"/><path d="m1008.98,74.9425,0,2,29.5624,0,0.2188,0,0-2-0.2188,0-29.5624,0z"/><path d="m1008.98,86.056,0,2,29.5624,0,0.2188,0,0-2-0.2188,0-29.5624,0z"/></g><path fill="#000" d="m1065.11,89.233,2,0,0-18.8706,0-0.139667-2,0,0,0.139667,0,18.8706z"/><g transform="translate(0,241.1)" fill="#000"><path d="m1008.98,80.6562,0,2,29.5624,0,0.2188,0,0-2-0.2188,0-29.5624,0z"/><path d="m1008.98,74.9425,0,2,29.5624,0,0.2188,0,0-2-0.2188,0-29.5624,0z"/><path d="m1008.98,86.056,0,2,29.5624,0,0.2188,0,0-2-0.2188,0-29.5624,0z"/></g><g transform="translate(-600.6998,241.1)" fill="#000"><path d="m1008.98,80.6562,0,2,29.5624,0,0.2188,0,0-2-0.2188,0-29.5624,0z"/><path d="m1008.98,74.9425,0,2,29.5624,0,0.2188,0,0-2-0.2188,0-29.5624,0z"/><path d="m1008.98,86.056,0,2,29.5624,0,0.2188,0,0-2-0.2188,0-29.5624,0z"/></g><g transform="translate(-543.7998,-1.999999)" fill="#000"><path d="m1008.98,80.6562,0,2,29.5624,0,0.2188,0,0-2-0.2188,0-29.5624,0z"/><path d="m1008.98,74.9425,0,2,29.5624,0,0.2188,0,0-2-0.2188,0-29.5624,0z"/><path d="m1008.98,86.056,0,2,29.5624,0,0.2188,0,0-2-0.2188,0-29.5624,0z"/></g><path fill="#000" d="m524.213,89.233,2,0,0-18.8706,0-0.139667-2,0,0,0.139667,0,18.8706z"/><path stroke="#47d1ff" stroke-width="3" d="m809.5,237.604c-19.5133,7.51098-27.9628,12.1811-27.908,30.419,0.56529,35.1546,31.7583,25.4956,54.908,20.6596,34.0901-7.13151,60.0446-7.16719,95-0.13059,28.8818,8.09549,56.1073,10.1232,56.5-21.2566-1.22415-21.9685-14.7404-24.316-28.5-29.7261-45.9223-11.8333-105.08-13.9874-150,0.0347z" fill="#d4f2ff"/><g stroke="#999" stroke-width="3" transform="matrix(-1,0,0,1,1463.853,-1.999999)" fill="#FFF"><path d="m1078.94,394.581c-9.1127-16.7168-15.6361-43.4501,2.3957-53.9699,18.0318-10.5199,39.8709,8.06863,49.8403,24.0137,9.9694,15.945,19.7008,47.4612-0.1614,58.8681s-42.9619-12.195-52.0746-28.9118z"/><path d="m1078.94,254.05c-9.1127,16.7168-15.6361,43.4501,2.3957,53.9699,18.0318,10.5199,39.8709-8.06863,49.8403-24.0137,9.9694-15.945,19.7008-47.4612-0.1614-58.8681s-42.9619,12.195-52.0746,28.9118z"/></g><g stroke="#999" stroke-width="3" transform="translate(-621.19957,-1.999999)" fill="#FFF"><path d="m1078.94,394.581c-9.1127-16.7168-15.6361-43.4501,2.3957-53.9699,18.0318-10.5199,39.8709,8.06863,49.8403,24.0137,9.9694,15.945,19.7008,47.4612-0.1614,58.8681s-42.9619-12.195-52.0746-28.9118z"/><path d="m1078.94,254.05c-9.1127,16.7168-15.6361,43.4501,2.3957,53.9699,18.0318,10.5199,39.8709-8.06863,49.8403-24.0137,9.9694-15.945,19.7008-47.4612-0.1614-58.8681s-42.9619,12.195-52.0746,28.9118z"/></g><g stroke="#47d1ff" stroke-width="3" transform="translate(0,-1.999999)" fill="#d4f2ff"><path d="m1078.94,394.581c-9.1127-16.7168-15.6361-43.4501,2.3957-53.9699,18.0318-10.5199,39.8709,8.06863,49.8403,24.0137,9.9694,15.945,19.7008,47.4612-0.1614,58.8681s-42.9619-12.195-52.0746-28.9118z"/><path d="m1078.94,254.05c-9.1127,16.7168-15.6361,43.4501,2.3957,53.9699,18.0318,10.5199,39.8709-8.06863,49.8403-24.0137,9.9694-15.945,19.7008-47.4612-0.1614-58.8681s-42.9619,12.195-52.0746,28.9118z"/></g><g stroke="#47d1ff" stroke-width="3" transform="matrix(-1,0,0,1,1818.053,-1.999999)" fill="#d4f2ff"><path d="m1078.94,394.581c-9.1127-16.7168-15.6361-43.4501,2.3957-53.9699,18.0318-10.5199,39.8709,8.06863,49.8403,24.0137,9.9694,15.945,19.7008,47.4612-0.1614,58.8681s-42.9619-12.195-52.0746-28.9118z"/><path d="m1078.94,254.05c-9.1127,16.7168-15.6361,43.4501,2.3957,53.9699,18.0318,10.5199,39.8709-8.06863,49.8403-24.0137,9.9694-15.945,19.7008-47.4612-0.1614-58.8681s-42.9619,12.195-52.0746,28.9118z"/></g><path stroke="#47d1ff" stroke-width="3" d="m809.5,401.033c-19.5133-7.51098-27.9628-12.1811-27.908-30.419,0.56529-35.1546,31.7583-25.4956,54.908-20.6596,34.0901,7.13151,60.0446,7.16719,95,0.13059,28.8818-8.09549,56.1073-10.1232,56.5,21.2566-1.22415,21.9685-14.7404,24.316-28.5,29.7261-45.9223,11.8333-105.08,13.9874-150-0.0347z" fill="#d4f2ff"/><path stroke-linejoin="round" d="M365.866,119.05c22.151-4.445,53.39-21.7118,66.536-38.5243-13.22-16.0773-44.172-36.6181-66.705-40.5516-22.5338-3.93346-48.7946,9.97099-48.494,40.6506,0.30064,30.6796,26.5124,42.8709,48.6634,38.4254z" stroke="#999" stroke-linecap="round" stroke-width="3" fill="#e8e8e8"/><path stroke-linejoin="round" d="m688.48,80.0994c0-12.5442,8.76893-19.404,21.0556-17.2181,12.2867,2.18589,26.4606,8.93833,33.464,17.2753-6.88837,8.72198-21.1201,16.546-33.464,18.2385-12.344,1.6929-21.056-4.4989-21.056-18.2957z" stroke="#999" stroke-linecap="round" stroke-width="3" fill="#e8e8e8"/><path stroke="#878787" stroke-width="3" d="M781.303,80.6247c-0.078-35.7426,66.695-41.5207,96.697-41.5698,29.6812,0.08098,96.4983,5.67829,96.833,41.9997,0.0191,35.175-68.0625,42.8157-96.5907,43.4093-28.5282,0.59363-96.5368-8.26645-96.9395-43.8392z" fill="#e8e8e8"/><path stroke-linejoin="round" d="M205.537,119.05c-22.151-4.445-53.39-21.7118-66.537-38.5243,13.22-16.0773,44.172-36.6181,66.706-40.5516,22.5338-3.93346,48.7946,9.97099,48.494,40.6506-0.30064,30.6796-26.5124,42.8709-48.6634,38.4254z" stroke="#999" stroke-linecap="round" stroke-width="3" fill="#FFF"/><path stroke-linejoin="round" d="m58.88,80.0994c0-12.5442,8.76893-19.404,21.0556-17.2181,12.2867,2.18589,26.4606,8.93833,33.464,17.2753-6.88837,8.72198-21.1201,16.546-33.464,18.2386-12.3443,1.6928-21.056-4.499-21.056-18.2958z" stroke="#999" stroke-linecap="round" stroke-width="3" fill="#FFF"/><path stroke-linejoin="round" d="m156.531,320.406c1.99718-16.7085,4.62484-29.5876,16.4622-60.264,11.8374-30.6765,48.0971-56.6147,73.6393-28.9743s3.7668,58.9869-27.1322,72.8566-48.4367,15.6843-62.9694,16.3818z" stroke="#47d1ff" stroke-linecap="round" stroke-width="3" fill="#d4f2ff"/><path stroke-linejoin="round" d="m153.537,320.406c-16.7085-1.99718-29.5876-4.62484-60.264-16.4622-30.6765-11.8374-56.6147-48.0971-28.9743-73.6393s58.9869-3.7668,72.8566,27.1322,15.6843,48.4367,16.3818,62.9694z" stroke="#47d1ff" stroke-linecap="round" stroke-width="3" fill="#d4f2ff"/><path stroke-linejoin="round" d="m153.537,323.654c-16.7085,1.99718-29.5876,4.62484-60.264,16.4622-30.6765,11.8374-56.6147,48.0971-28.9743,73.6393s58.9869,3.7668,72.8566-27.1322,15.6843-48.4367,16.3818-62.9694z" stroke="#47d1ff" stroke-linecap="round" stroke-width="3" fill="#d4f2ff"/><path stroke-linejoin="round" d="m156.531,323.654c16.7085,1.99718,29.5876,4.62484,60.264,16.4622,30.6765,11.8374,56.6147,48.0971,28.9743,73.6393s-58.9869,3.7668-72.8566-27.1322-15.6843-48.4367-16.3818-62.9694z" stroke="#47d1ff" stroke-linecap="round" stroke-width="3" fill="#d4f2ff"/><g><path d="m117.397,69.4703,3.96826,0,5.02295,13.3945,5.04932-13.3945,3.96826,0,0,19.6831-2.59717,0,0-17.2837-5.07568,13.5-2.67627,0-5.07568-13.5,0,17.2837-2.58399,0z"/><path d="m290.065,72.2257,0,7.34326,7.34326,0,0,2.24121-7.34326,0,0,7.34326-2.21484,0,0-7.34326-7.34327,0,0-2.24121,7.34327,0,0-7.34326z"/><path d="m216.265,72.2257,0,7.34326,7.34327,0,0,2.24121-7.34327,0,0,7.34326-2.21484,0,0-7.34326-7.34326,0,0-2.24121,7.34326,0,0-7.34326z"/><path d="m362.265,72.2257,0,7.34326,7.34326,0,0,2.24121-7.34326,0,0,7.34326-2.21484,0,0-7.34326-7.34326,0,0-2.24121,7.34326,0,0-7.34326z"/><path d="m461.036,70.9864,0,2.80811c-0.8965-0.834945-1.85231-1.45897-2.86743-1.87207-1.01515-0.413068-2.094-0.619611-3.23657-0.619628-2.25001,0.000017-3.97266,0.687761-5.16797,2.06323-1.19532,1.3755-1.79297,3.36403-1.79297,5.96558,0,2.59278,0.59765,4.57691,1.79297,5.95239,1.19531,1.37549,2.91796,2.06323,5.16797,2.06323,1.14257,0.000002,2.22142-0.206541,3.23657-0.619629,1.01512-0.413083,1.97093-1.03711,2.86743-1.87207v2.78174c-0.93165,0.632814-1.91822,1.10742-2.95971,1.42383-1.04152,0.316406-2.14235,0.474609-3.30249,0.47461-2.9795-0.000001-5.32618-0.911865-7.04004-2.7356-1.71387-1.82373-2.5708-4.31323-2.5708-7.46851,0-3.16405,0.85693-5.65794,2.5708-7.48169,1.71386-1.82371,4.06054-2.73558,7.04004-2.7356,1.17772,0.00002,2.28734,0.156026,3.32885,0.468018,1.04149,0.312031,2.01928,0.780048,2.93335,1.40405z"/><path d="m511.886,71.2765c-1.9336,0.000018-3.46949,0.720721-4.60767,2.16211-1.13818,1.44142-1.70728,3.40577-1.70727,5.89307-0.00001,2.47852,0.56909,4.43848,1.70727,5.87988,1.13818,1.44141,2.67407,2.16211,4.60767,2.16211,1.93358,0.000002,3.46507-0.7207,4.59448-2.16211,1.12938-1.4414,1.69408-3.40136,1.69409-5.87988-0.00001-2.48729-0.56471-4.45165-1.69409-5.89307-1.12941-1.44139-2.6609-2.16209-4.59448-2.16211zm0-2.16211c2.75975,0.00002,4.96581,0.925068,6.61816,2.77515,1.65233,1.85011,2.4785,4.33082,2.47852,7.44214-0.00002,3.10255-0.82619,5.57886-2.47852,7.42896-1.65235,1.8501-3.85841,2.77515-6.61816,2.77515-2.76856-0.000001-4.98121-0.922851-6.63794-2.76856-1.65674-1.8457-2.48511-4.32421-2.48511-7.43555,0-3.11132,0.82837-5.59202,2.48511-7.44214,1.65673-1.85008,3.86938-2.77513,6.63794-2.77515z"/><path d="m754.096,69.4703,3.96826,0,5.02295,13.3945,5.04931-13.3945,3.96826,0,0,19.6831-2.59716,0,0-17.2837-5.07569,13.5-2.67627,0-5.07568-13.5,0,17.2837-2.58398,0z"/><path d="m1003.14,70.9864,0,2.80811c-0.8965-0.834945-1.8523-1.45897-2.8674-1.87207-1.01516-0.413068-2.09401-0.619611-3.23658-0.619628-2.25001,0.000017-3.97266,0.687761-5.16797,2.06323-1.19531,1.3755-1.79297,3.36403-1.79297,5.96558,0,2.59278,0.59766,4.57691,1.79297,5.95239,1.19531,1.37549,2.91796,2.06323,5.16797,2.06323,1.14257,0.000002,2.22142-0.206541,3.23658-0.619629,1.0151-0.413083,1.9709-1.03711,2.8674-1.87207v2.78174c-0.9316,0.632814-1.9182,1.10742-2.9597,1.42383-1.04151,0.316406-2.14234,0.474609-3.30248,0.47461-2.9795-0.000001-5.32618-0.911865-7.04004-2.7356-1.71387-1.82373-2.5708-4.31323-2.5708-7.46851,0-3.16405,0.85693-5.65794,2.5708-7.48169,1.71386-1.82371,4.06054-2.73558,7.04004-2.7356,1.17772,0.00002,2.28734,0.156026,3.32888,0.468018,1.0415,0.312031,2.0192,0.780048,2.9333,1.40405z"/><path d="m1053.39,71.2765c-1.9336,0.000018-3.4695,0.720721-4.6077,2.16211-1.1381,1.44142-1.7072,3.40577-1.7072,5.89307,0,2.47852,0.5691,4.43848,1.7072,5.87988,1.1382,1.44141,2.6741,2.16211,4.6077,2.16211,1.9336,0.000002,3.4651-0.7207,4.5945-2.16211,1.1294-1.4414,1.6941-3.40136,1.6941-5.87988,0-2.48729-0.5647-4.45165-1.6941-5.89307-1.1294-1.44139-2.6609-2.16209-4.5945-2.16211zm0-2.16211c2.7598,0.00002,4.9658,0.925068,6.6182,2.77515,1.6523,1.85011,2.4785,4.33082,2.4785,7.44214,0,3.10255-0.8262,5.57886-2.4785,7.42896-1.6524,1.8501-3.8584,2.77515-6.6182,2.77515-2.7686-0.000001-4.9812-0.922851-6.6379-2.76856-1.6568-1.8457-2.4851-4.32421-2.4851-7.43555,0-3.11132,0.8283-5.59202,2.4851-7.44214,1.6567-1.85008,3.8693-2.77513,6.6379-2.77515z"/><path d="m146.097,314.57,3.96826,0,5.02295,13.3945,5.04932-13.3945,3.96826,0,0,19.6831-2.59717,0,0-17.2837-5.07568,13.5-2.67627,0-5.07568-13.5,0,17.2837-2.58399,0z" stroke="#e6e6e6" stroke-width="3"/><path d="m146.097,314.57,3.96826,0,5.02295,13.3945,5.04932-13.3945,3.96826,0,0,19.6831-2.59718,0,0-17.2837-5.07568,13.5-2.67626,0-5.07569-13.5,0,17.2837-2.58399,0z"/><path d="m290.065,317.325,0,7.34326,7.34326,0,0,2.24121-7.34326,0,0,7.34326-2.21484,0,0-7.34326-7.34327,0,0-2.24121,7.34327,0,0-7.34326z"/><path d="m97.8043,387.41,0,7.34326,7.34326,0,0,2.24121-7.34326,0,0,7.34326-2.21484,0,0-7.34326-7.34326,0,0-2.24121,7.34326,0,0-7.34326z"/><path d="m355.365,246.625,0,7.34326,7.34327,0,0,2.24121-7.34327,0,0,7.34326-2.21484,0,0-7.34326-7.34326,0,0-2.24121,7.34326,0,0-7.34326z"/><path d="m401.036,316.086,0,2.80811c-0.8965-0.83495-1.85231-1.45897-2.86743-1.87207-1.01515-0.41307-2.094-0.61962-3.23657-0.61963-2.25001,0.00001-3.97266,0.68776-5.16797,2.06323-1.19532,1.3755-1.79297,3.36403-1.79297,5.96558,0,2.59278,0.59765,4.5769,1.79297,5.95239,1.19531,1.37549,2.91796,2.06323,5.16797,2.06323,1.14257,0,2.22142-0.20654,3.23657-0.61963,1.01512-0.41308,1.97093-1.0371,2.86743-1.87207v2.78174c-0.93165,0.63281-1.91822,1.10742-2.95971,1.42383-1.04152,0.3164-2.14235,0.47461-3.30249,0.47461-2.9795,0-5.32618-0.91187-7.04004-2.7356-1.71387-1.82372-2.5708-4.31322-2.5708-7.4685,0-3.16405,0.85693-5.65795,2.5708-7.48169,1.71386-1.82372,4.06054-2.73558,7.04004-2.7356,1.17772,0.00002,2.28734,0.15603,3.32885,0.46802,1.04149,0.31203,2.01927,0.78005,2.93335,1.40405z"/><path d="m451.886,316.376c-1.9336,0.00002-3.46949,0.72072-4.60767,2.16211-1.13818,1.44142-1.70728,3.40577-1.70727,5.89307-0.00001,2.47852,0.56909,4.43848,1.70727,5.87988,1.13818,1.44141,2.67407,2.16211,4.60767,2.16211,1.93358,0,3.46507-0.7207,4.59448-2.16211,1.12938-1.4414,1.69408-3.40136,1.69409-5.87988-0.00001-2.4873-0.56471-4.45165-1.69409-5.89307-1.12941-1.44139-2.6609-2.16209-4.59448-2.16211zm0-2.16211c2.75975,0.00002,4.9658,0.92507,6.61816,2.77515,1.65233,1.85011,2.4785,4.33082,2.47852,7.44214-0.00002,3.10254-0.82619,5.57886-2.47852,7.42895-1.65236,1.8501-3.85841,2.77515-6.61816,2.77515-2.76856,0-4.98121-0.92285-6.63794-2.76856-1.65674-1.8457-2.48511-4.32421-2.48511-7.43554,0-3.11132,0.82837-5.59203,2.48511-7.44214,1.65673-1.85008,3.86938-2.77513,6.63794-2.77515z"/><path d="m754.096,314.57,3.96826,0,5.02295,13.3945,5.04931-13.3945,3.96826,0,0,19.6831-2.59716,0,0-17.2837-5.07569,13.5-2.67627,0-5.07568-13.5,0,17.2837-2.58398,0z"/><path d="m1003.14,316.086,0,2.80811c-0.8965-0.83495-1.8523-1.45897-2.8674-1.87207-1.01516-0.41307-2.09401-0.61962-3.23658-0.61963-2.25001,0.00001-3.97266,0.68776-5.16797,2.06323-1.19531,1.3755-1.79297,3.36403-1.79297,5.96558,0,2.59278,0.59766,4.5769,1.79297,5.95239s2.91796,2.06323,5.16797,2.06323c1.14257,0,2.22142-0.20654,3.23658-0.61963,1.0151-0.41308,1.9709-1.0371,2.8674-1.87207v2.78174c-0.9316,0.63281-1.9182,1.10742-2.9597,1.42383-1.04151,0.3164-2.14234,0.47461-3.30248,0.47461-2.9795,0-5.32618-0.91187-7.04004-2.7356-1.71387-1.82372-2.5708-4.31322-2.5708-7.4685,0-3.16405,0.85693-5.65795,2.5708-7.48169,1.71386-1.82372,4.06054-2.73558,7.04004-2.7356,1.17772,0.00002,2.28734,0.15603,3.32888,0.46802,1.0415,0.31203,2.0192,0.78005,2.9333,1.40405z"/><path d="m1053.39,316.376c-1.9336,0.00002-3.4695,0.72072-4.6077,2.16211-1.1381,1.44142-1.7072,3.40577-1.7072,5.89307,0,2.47852,0.5691,4.43848,1.7072,5.87988,1.1382,1.44141,2.6741,2.16211,4.6077,2.16211s3.4651-0.7207,4.5945-2.16211c1.1294-1.4414,1.6941-3.40136,1.6941-5.87988,0-2.4873-0.5647-4.45165-1.6941-5.89307-1.1294-1.44139-2.6609-2.16209-4.5945-2.16211zm0-2.16211c2.7598,0.00002,4.9658,0.92507,6.6182,2.77515,1.6523,1.85011,2.4785,4.33082,2.4785,7.44214,0,3.10254-0.8262,5.57886-2.4785,7.42895-1.6524,1.8501-3.8584,2.77515-6.6182,2.77515-2.7686,0-4.9812-0.92285-6.6379-2.76856-1.6568-1.8457-2.4851-4.32421-2.4851-7.43554,0-3.11132,0.8283-5.59203,2.4851-7.44214,1.6567-1.85008,3.8693-2.77513,6.6379-2.77515z"/><path d="m222.865,251.225,0,7.34327,7.34326,0,0,2.24121-7.34326,0,0,7.34326-2.21484,0,0-7.34326-7.34326,0,0-2.24121,7.34326,0,0-7.34327z"/><path d="m212.904,392.892,10.8633,0,0,1.89843-10.8633,0z"/><path d="m88.1648,258.007,10.8633,0,0,1.89843-10.8633,0z"/><path d="m344.265,389.808,10.8633,0,0,1.89844-10.8633,0z"/><path d="m488.265,253.308,10.8633,0,0,1.89844-10.8633,0z"/><path d="m499.365,382.826,0,7.34326,7.34327,0,0,2.24121-7.34327,0,0,7.34327-2.21484,0,0-7.34327-7.34326,0,0-2.24121,7.34326,0,0-7.34326z"/><path d="m648.653,82.0766-15.3164,15.3984-4.21875-4.21875,8.1914-8.19141-72.6552,0,0-5.97656,72.6552,0-8.1914-8.19141,4.21875-4.21875z"/><path d="m648.653,324.777-15.3164,15.3984-4.21875-4.21875,8.1914-8.19141-72.6552,0,0-5.97656,72.6552,0-8.1914-8.1914,4.21875-4.21875z"/></g><g font-size="28px" font-family="Arial"><switch allowReorder="yes"><text><tspan y="464.45331" x="43.246471" font-size="28px">(b) π Backbonding M → L</tspan></text></switch><switch allowReorder="yes"><text><tspan y="153.85341" x="43.246471">(a) σ Bonding L → M</tspan></text></switch></g></svg>
